<svg version="1.1" xmlns="http://www.w3.org/2000/svg" viewBox="0 0 952.3170872663259 1127.6998294049608" width="952.3170872663259" height="1127.6998294049608">
  <!-- svg-source:excalidraw -->
  
  <defs>
    <style class="style-fonts">
      @font-face {
        font-family: "Virgil";
        src: url("https://excalidraw.com/Virgil.woff2");
      }
      @font-face {
        font-family: "Cascadia";
        src: url("https://excalidraw.com/Cascadia.woff2");
      }
      @font-face {
        font-family: "Assistant";
        src: url("https://excalidraw.com/Assistant-Regular.woff2");
      }
    </style>
    
  </defs>
  <rect x="0" y="0" width="952.3170872663259" height="1127.6998294049608" fill="#ffffff"></rect><g stroke-linecap="round" transform="translate(248.8469446273084 734.8886270680891) rotate(0 131.49995040893555 64)"><path d="M0 0 C0 0, 0 0, 0 0 M0 0 C0 0, 0 0, 0 0 M0.13 12.04 C2.08 8.05, 5.83 7.3, 10.63 -0.03 M0.13 12.04 C3.37 8.52, 4.64 5.94, 10.63 -0.03 M0.27 24.08 C6.8 20.26, 11.17 14.05, 21.26 -0.07 M0.27 24.08 C5.72 17.74, 11.48 11.48, 21.26 -0.07 M-0.26 36.88 C7.04 26.47, 16.38 17.28, 31.89 -0.1 M-0.26 36.88 C6.86 26.74, 15.24 19.45, 31.89 -0.1 M-0.12 48.92 C13.39 32.84, 28.12 17.31, 42.52 -0.14 M-0.12 48.92 C11.46 35.55, 22.41 23.83, 42.52 -0.14 M0.01 60.96 C14.89 46.21, 28.6 31.06, 53.15 -0.17 M0.01 60.96 C16.64 41.98, 32.56 21.43, 53.15 -0.17 M0.14 73 C23.11 49.6, 42.2 25.65, 63.78 -0.21 M0.14 73 C14.39 55.39, 29.88 40.06, 63.78 -0.21 M0.28 85.04 C22.64 56.66, 48.65 29.87, 74.41 -0.24 M0.28 85.04 C16.55 64.8, 35.49 44.39, 74.41 -0.24 M-0.25 97.84 C23.33 69.98, 43.1 45.73, 85.04 -0.28 M-0.25 97.84 C29.76 61.47, 61.96 26.77, 85.04 -0.28 M-0.11 109.88 C37.17 68.12, 71.53 25.54, 95.67 -0.31 M-0.11 109.88 C28.06 79.38, 54.71 47.89, 95.67 -0.31 M0.02 121.92 C25.39 93.12, 47.76 67.69, 106.3 -0.34 M0.02 121.92 C31.48 82.72, 64.21 44.54, 106.3 -0.34 M2.78 130.94 C28.03 103.79, 50.69 74.81, 116.27 0.38 M2.78 130.94 C44.45 82.12, 88.65 31.11, 116.27 0.38 M13.41 130.91 C57.9 80.83, 103.17 29.17, 126.91 0.34 M13.41 130.91 C48.19 90.57, 84.53 50.83, 126.91 0.34 M24.04 130.87 C61.66 84.82, 101.91 42.81, 137.54 0.31 M24.04 130.87 C64.94 85.22, 104.95 39.01, 137.54 0.31 M34.67 130.84 C74.11 84.8, 118.74 37.41, 148.17 0.27 M34.67 130.84 C63.77 98.04, 93.48 62.54, 148.17 0.27 M45.3 130.8 C85.16 84.54, 125.96 36.5, 158.8 0.24 M45.3 130.8 C72.83 97.38, 100.48 66.63, 158.8 0.24 M55.93 130.77 C85.2 98.03, 111.37 62.92, 169.43 0.2 M55.93 130.77 C83.36 101.34, 108.14 71.88, 169.43 0.2 M66.56 130.73 C91.92 104.52, 112.78 75.03, 180.06 0.17 M66.56 130.73 C92.19 103.61, 116.65 76.23, 180.06 0.17 M77.19 130.7 C115.39 86.37, 157.93 38.83, 190.69 0.13 M77.19 130.7 C115.71 86.11, 154.04 40.79, 190.69 0.13 M87.82 130.66 C122.14 90.81, 160.13 49.28, 201.32 0.1 M87.82 130.66 C113.67 100.1, 142.19 67.67, 201.32 0.1 M98.45 130.63 C136.69 90.74, 169.53 50.66, 211.95 0.06 M98.45 130.63 C131.41 93.22, 167 53.47, 211.95 0.06 M109.08 130.6 C134.6 106.7, 157.71 76.33, 222.58 0.03 M109.08 130.6 C132.76 101.51, 158.81 72.55, 222.58 0.03 M119.71 130.56 C158.67 85.61, 196.84 41.18, 233.21 0 M119.71 130.56 C150.96 94.1, 181.22 58.16, 233.21 0 M130.34 130.53 C165.49 89.47, 203.05 46.23, 243.84 -0.04 M130.34 130.53 C160.32 95.98, 189.69 60.13, 243.84 -0.04 M140.97 130.49 C184.08 83.64, 223.52 32.44, 254.47 -0.07 M140.97 130.49 C186.33 78.28, 230.15 27.97, 254.47 -0.07 M151.6 130.46 C177.29 101.28, 205.18 67.06, 264.44 0.65 M151.6 130.46 C177.2 101.56, 201.29 75.14, 264.44 0.65 M162.23 130.42 C198.3 89.49, 233.64 49.27, 263.92 13.44 M162.23 130.42 C189.87 97.82, 217.44 66.33, 263.92 13.44 M172.86 130.39 C207.56 88.42, 242.73 51.1, 264.05 25.48 M172.86 130.39 C199.15 97.44, 227.65 66.6, 264.05 25.48 M183.49 130.35 C211.99 98.54, 239.26 69.81, 264.18 37.52 M183.49 130.35 C206.14 105.21, 225.76 80.56, 264.18 37.52 M194.12 130.32 C217.73 100.27, 245.38 74.18, 264.32 49.57 M194.12 130.32 C214.29 106.67, 235 81.8, 264.32 49.57 M204.75 130.28 C226.83 102.31, 251.97 75.91, 264.45 61.61 M204.75 130.28 C217.39 115.77, 228.57 102.2, 264.45 61.61 M214.72 131 C226 119.22, 234.37 106.92, 263.93 74.4 M214.72 131 C233.68 108.95, 252.5 87.52, 263.93 74.4 M225.35 130.97 C235.8 119.72, 244.01 106.43, 264.06 86.44 M225.35 130.97 C236.52 117.63, 249.8 104.1, 264.06 86.44 M235.98 130.94 C244.2 119.17, 255.53 107.53, 264.19 98.48 M235.98 130.94 C243.26 121.94, 250.92 114.13, 264.19 98.48 M246.61 130.9 C251.41 123.8, 258.49 118.43, 264.33 110.52 M246.61 130.9 C250.02 125.92, 254.01 121.04, 264.33 110.52 M257.24 130.87 C259.74 128.33, 259.61 126.7, 264.46 122.57 M257.24 130.87 C259.38 128.58, 260.9 127.07, 264.46 122.57" stroke="#b2f2bb" stroke-width="1" fill="none"></path><path d="M0 0 C75.64 -0.19, 147.7 -0.7, 263 0 M0 0 C90.99 1.34, 180.09 1.34, 263 0 M263 0 C261.53 32.87, 262.27 67.87, 263 128 M263 0 C262.8 40.17, 263.63 79.45, 263 128 M263 128 C180.76 126.49, 97.28 125.88, 0 128 M263 128 C173.02 126.63, 81.68 125.93, 0 128 M0 128 C2.31 83.86, 1.78 39.39, 0 0 M0 128 C0.24 85.53, -1.63 43.67, 0 0" stroke="#1e1e1e" stroke-width="2" fill="none"></path></g><g transform="translate(268.01355534508184 782.0553674855696) rotate(0 113.48995971679688 22.5)"><text x="0" y="0" font-family="Virgil, Segoe UI Emoji" font-size="36px" fill="#1e1e1e" text-anchor="start" style="white-space: pre;" direction="ltr" dominant-baseline="text-before-edge">Web App/API</text></g><g transform="translate(541.846936997912 735.5553217092024) rotate(0 120.64989471435547 137.5)"><text x="0" y="0" font-family="Virgil, Segoe UI Emoji" font-size="20px" fill="#1e1e1e" text-anchor="start" style="white-space: pre;" direction="ltr" dominant-baseline="text-before-edge">* Interface web</text><text x="0" y="25" font-family="Virgil, Segoe UI Emoji" font-size="20px" fill="#1e1e1e" text-anchor="start" style="white-space: pre;" direction="ltr" dominant-baseline="text-before-edge">* API</text><text x="0" y="50" font-family="Virgil, Segoe UI Emoji" font-size="20px" fill="#1e1e1e" text-anchor="start" style="white-space: pre;" direction="ltr" dominant-baseline="text-before-edge">* Autenticação</text><text x="0" y="75" font-family="Virgil, Segoe UI Emoji" font-size="20px" fill="#1e1e1e" text-anchor="start" style="white-space: pre;" direction="ltr" dominant-baseline="text-before-edge">* Validação</text><text x="0" y="100" font-family="Virgil, Segoe UI Emoji" font-size="20px" fill="#1e1e1e" text-anchor="start" style="white-space: pre;" direction="ltr" dominant-baseline="text-before-edge">* Lógica de negócio</text><text x="0" y="125" font-family="Virgil, Segoe UI Emoji" font-size="20px" fill="#1e1e1e" text-anchor="start" style="white-space: pre;" direction="ltr" dominant-baseline="text-before-edge">* Persistência de dados</text><text x="0" y="150" font-family="Virgil, Segoe UI Emoji" font-size="20px" fill="#1e1e1e" text-anchor="start" style="white-space: pre;" direction="ltr" dominant-baseline="text-before-edge"></text><text x="0" y="175" font-family="Virgil, Segoe UI Emoji" font-size="20px" fill="#1e1e1e" text-anchor="start" style="white-space: pre;" direction="ltr" dominant-baseline="text-before-edge">* Spring</text><text x="0" y="200" font-family="Virgil, Segoe UI Emoji" font-size="20px" fill="#1e1e1e" text-anchor="start" style="white-space: pre;" direction="ltr" dominant-baseline="text-before-edge">* Thymeleaf</text><text x="0" y="225" font-family="Virgil, Segoe UI Emoji" font-size="20px" fill="#1e1e1e" text-anchor="start" style="white-space: pre;" direction="ltr" dominant-baseline="text-before-edge">* Bootstrap</text><text x="0" y="250" font-family="Virgil, Segoe UI Emoji" font-size="20px" fill="#1e1e1e" text-anchor="start" style="white-space: pre;" direction="ltr" dominant-baseline="text-before-edge">* AlpineJS</text></g><g stroke-linecap="round" transform="translate(274.9857919783808 466.9442300954329) rotate(0 108.33331298828125 64)"><path d="M0 0 C0 0, 0 0, 0 0 M0 0 C0 0, 0 0, 0 0 M0.13 12.04 C4.93 9.21, 6.44 2.46, 10.63 -0.03 M0.13 12.04 C2.8 9.53, 6.56 6.15, 10.63 -0.03 M0.27 24.08 C7.6 16.91, 12.68 10.58, 21.26 -0.07 M0.27 24.08 C6.31 16.7, 11.7 10.35, 21.26 -0.07 M-0.26 36.88 C12.35 22.41, 20.73 10.42, 31.89 -0.1 M-0.26 36.88 C11.76 22.06, 24.65 7.92, 31.89 -0.1 M-0.12 48.92 C14.5 31.59, 30.55 12.58, 42.52 -0.14 M-0.12 48.92 C14.04 32.9, 29.32 16.33, 42.52 -0.14 M0.01 60.96 C18.63 39.03, 38.16 15.65, 53.15 -0.17 M0.01 60.96 C10.17 49.3, 22.05 35.61, 53.15 -0.17 M0.14 73 C22.2 45.91, 44.9 20.51, 63.78 -0.21 M0.14 73 C25.02 44.48, 48.3 17.72, 63.78 -0.21 M0.28 85.04 C22.73 60.33, 41.07 41.03, 74.41 -0.24 M0.28 85.04 C17.99 64.27, 35.79 41.81, 74.41 -0.24 M-0.25 97.84 C26.34 65.31, 51.48 37.01, 85.04 -0.28 M-0.25 97.84 C24.66 68.66, 50.63 37.96, 85.04 -0.28 M-0.11 109.88 C19.66 87.3, 41.86 62.5, 95.67 -0.31 M-0.11 109.88 C26.81 80.34, 52.58 49.28, 95.67 -0.31 M0.02 121.92 C38.05 77.41, 72.53 34.46, 106.3 -0.34 M0.02 121.92 C25.53 95.53, 48.86 67.86, 106.3 -0.34 M2.78 130.94 C27.02 98.96, 54.85 70.91, 116.27 0.38 M2.78 130.94 C28.19 100.23, 55.68 69.74, 116.27 0.38 M13.41 130.91 C49.83 87.36, 87.51 46.62, 126.91 0.34 M13.41 130.91 C56.1 81.65, 97.5 33.59, 126.91 0.34 M24.04 130.87 C61.89 87.85, 101.63 43.06, 137.54 0.31 M24.04 130.87 C61.28 85.65, 100.56 43.13, 137.54 0.31 M34.67 130.84 C77.76 79.27, 124.22 28.75, 148.17 0.27 M34.67 130.84 C58.93 102.02, 83.33 74.01, 148.17 0.27 M45.3 130.8 C81.89 90.75, 112.94 51.63, 158.8 0.24 M45.3 130.8 C86.82 85.15, 126.54 37.91, 158.8 0.24 M55.93 130.77 C80.56 105.06, 105.03 75.34, 169.43 0.2 M55.93 130.77 C91.55 90.24, 128.33 47.7, 169.43 0.2 M66.56 130.73 C95.21 99.26, 125.56 66.26, 180.06 0.17 M66.56 130.73 C102.14 86.91, 140.49 45.42, 180.06 0.17 M77.19 130.7 C117.15 85.03, 156.34 39.16, 190.69 0.13 M77.19 130.7 C106.22 97.17, 135.5 65.18, 190.69 0.13 M87.82 130.66 C119.32 92.53, 152.05 59.22, 201.32 0.1 M87.82 130.66 C116.46 98.4, 146.9 63.03, 201.32 0.1 M98.45 130.63 C130.15 90.31, 167 54.87, 211.95 0.06 M98.45 130.63 C138.71 86.32, 180.27 40.46, 211.95 0.06 M109.08 130.6 C133.68 100.39, 157.61 74.19, 219.95 3.05 M109.08 130.6 C135.64 100.85, 161.44 70.35, 219.95 3.05 M119.71 130.56 C142.27 106.16, 162.81 79.56, 220.08 15.09 M119.71 130.56 C151.33 92.88, 183.79 56.65, 220.08 15.09 M130.34 130.53 C155.15 102.46, 180.68 72.14, 220.22 27.13 M130.34 130.53 C157.7 100.08, 185.07 67.69, 220.22 27.13 M140.97 130.49 C156.35 111.19, 173.5 88.07, 220.35 39.17 M140.97 130.49 C173.9 93.62, 205.99 57.85, 220.35 39.17 M151.6 130.46 C167.41 115.17, 179.54 98.62, 219.83 51.97 M151.6 130.46 C175.17 102.31, 200.16 73.83, 219.83 51.97 M162.23 130.42 C179.4 111.04, 194.83 91.29, 219.96 64.01 M162.23 130.42 C176.19 113.8, 189.59 97.42, 219.96 64.01 M172.86 130.39 C189.17 111.23, 202.29 95.06, 220.09 76.05 M172.86 130.39 C185.89 115.15, 199.8 99.29, 220.09 76.05 M183.49 130.35 C198.32 116.8, 210.12 98.09, 220.23 88.09 M183.49 130.35 C192.13 119.44, 200.38 110.57, 220.23 88.09 M194.12 130.32 C201.69 119.16, 211.91 108.43, 220.36 100.13 M194.12 130.32 C200.43 122.54, 205.91 116.28, 220.36 100.13 M204.75 130.28 C209.64 127.33, 212.06 120.93, 219.84 112.93 M204.75 130.28 C210.45 124.4, 215.93 117.18, 219.84 112.93" stroke="#ffec99" stroke-width="1" fill="none"></path><path d="M0 0 C49.08 1.19, 100.44 -1.23, 216.67 0 M0 0 C67.45 0.27, 133.6 0.59, 216.67 0 M216.67 0 C216.32 42.52, 216.97 87.85, 216.67 128 M216.67 0 C215.94 28.95, 217.13 57.12, 216.67 128 M216.67 128 C152.75 128.19, 92.75 126.09, 0 128 M216.67 128 C159.71 126.6, 101.81 126.37, 0 128 M0 128 C-0.95 98.28, -0.04 63.03, 0 0 M0 128 C-1.05 77.63, -0.53 25.48, 0 0" stroke="#1e1e1e" stroke-width="2" fill="none"></path></g><g transform="translate(356.76358331952724 510.49979243267217) rotate(0 27.125991821289062 22.5)"><text x="0" y="0" font-family="Virgil, Segoe UI Emoji" font-size="36px" fill="#1e1e1e" text-anchor="start" style="white-space: pre;" direction="ltr" dominant-baseline="text-before-edge">DB</text></g><g stroke-linecap="round"><g transform="translate(356.68056148449796 703.166469271865) rotate(0 2.3949342660557704 -40)"><path d="M0 0 C2.01 -32.63, 3 -62.6, 4.79 -80 M0 0 C1.87 -19.87, 2.94 -40.28, 4.79 -80" stroke="#1e1e1e" stroke-width="2" fill="none"></path></g><g transform="translate(356.68056148449796 703.166469271865) rotate(0 2.3949342660557704 -40)"><path d="M12.2 -56.12 C9.4 -66.43, 5.53 -74.03, 4.79 -80 M12.2 -56.12 C10.84 -61.97, 8.86 -68.34, 4.79 -80" stroke="#1e1e1e" stroke-width="2" fill="none"></path></g><g transform="translate(356.68056148449796 703.166469271865) rotate(0 2.3949342660557704 -40)"><path d="M-4.88 -56.95 C-0.87 -66.86, 2.07 -74.12, 4.79 -80 M-4.88 -56.95 C-1.98 -62.57, 0.32 -68.73, 4.79 -80" stroke="#1e1e1e" stroke-width="2" fill="none"></path></g></g><mask></mask><g stroke-linecap="round"><g transform="translate(413.9101014069365 623.166469271865) rotate(0 1.7737722905280862 43.33333333333326)"><path d="M0 0 C0.26 23.67, 0.92 44.35, 3.55 86.67 M0 0 C1.66 24.63, 1.82 49.86, 3.55 86.67" stroke="#1e1e1e" stroke-width="2" fill="none"></path></g><g transform="translate(413.9101014069365 623.166469271865) rotate(0 1.7737722905280862 43.33333333333326)"><path d="M-5.94 63.53 C-4.19 70.74, -1.99 74.93, 3.55 86.67 M-5.94 63.53 C-2.83 69.91, -0.96 76.88, 3.55 86.67" stroke="#1e1e1e" stroke-width="2" fill="none"></path></g><g transform="translate(413.9101014069365 623.166469271865) rotate(0 1.7737722905280862 43.33333333333326)"><path d="M11.15 62.85 C8.46 70.17, 6.23 74.53, 3.55 86.67 M11.15 62.85 C9.35 69.44, 6.31 76.61, 3.55 86.67" stroke="#1e1e1e" stroke-width="2" fill="none"></path></g></g><mask></mask><g transform="translate(269.35070970396737 10) rotate(0 106.79196166992188 17.5)"><text x="0" y="0" font-family="Virgil, Segoe UI Emoji" font-size="28px" fill="#1e1e1e" text-anchor="start" style="white-space: pre;" direction="ltr" dominant-baseline="text-before-edge">ARQUITETURA</text></g><g transform="translate(220.7074842308948 143.62837425110865) rotate(0 152.4739532470703 122.5)"><text x="0" y="0" font-family="Virgil, Segoe UI Emoji" font-size="28px" fill="#1e1e1e" text-anchor="start" style="white-space: pre;" direction="ltr" dominant-baseline="text-before-edge">Pros:</text><text x="0" y="35" font-family="Virgil, Segoe UI Emoji" font-size="28px" fill="#1e1e1e" text-anchor="start" style="white-space: pre;" direction="ltr" dominant-baseline="text-before-edge">    - Simplicidade</text><text x="0" y="70" font-family="Virgil, Segoe UI Emoji" font-size="28px" fill="#1e1e1e" text-anchor="start" style="white-space: pre;" direction="ltr" dominant-baseline="text-before-edge">    - Usabilidade</text><text x="0" y="105" font-family="Virgil, Segoe UI Emoji" font-size="28px" fill="#1e1e1e" text-anchor="start" style="white-space: pre;" direction="ltr" dominant-baseline="text-before-edge">    - Interface web</text><text x="0" y="140" font-family="Virgil, Segoe UI Emoji" font-size="28px" fill="#1e1e1e" text-anchor="start" style="white-space: pre;" direction="ltr" dominant-baseline="text-before-edge">    - Interface mobile</text><text x="0" y="175" font-family="Virgil, Segoe UI Emoji" font-size="28px" fill="#1e1e1e" text-anchor="start" style="white-space: pre;" direction="ltr" dominant-baseline="text-before-edge">Cons:</text><text x="0" y="210" font-family="Virgil, Segoe UI Emoji" font-size="28px" fill="#1e1e1e" text-anchor="start" style="white-space: pre;" direction="ltr" dominant-baseline="text-before-edge">    - Acoplamento</text></g><g stroke-linecap="round" transform="translate(10 989.6998294049608) rotate(0 108.33331298828125 64)"><path d="M0 0 C0 0, 0 0, 0 0 M0 0 C0 0, 0 0, 0 0 M0.13 12.04 C3.01 6.41, 8.26 3.32, 10.63 -0.03 M0.13 12.04 C2.91 9.09, 6.33 4.59, 10.63 -0.03 M0.27 24.08 C5.53 16.99, 13.99 8.15, 21.26 -0.07 M0.27 24.08 C5.1 19.66, 8.85 13.52, 21.26 -0.07 M-0.26 36.88 C9.4 26.18, 18.88 14.26, 31.89 -0.1 M-0.26 36.88 C6.22 28.86, 13.23 21.18, 31.89 -0.1 M-0.12 48.92 C13.89 32.61, 27.55 16.04, 42.52 -0.14 M-0.12 48.92 C14.76 32.58, 27.9 17.61, 42.52 -0.14 M0.01 60.96 C16.85 41.94, 34.5 19.6, 53.15 -0.17 M0.01 60.96 C10.53 47.85, 21.76 35.09, 53.15 -0.17 M0.14 73 C14.71 54.18, 34.38 33.71, 63.78 -0.21 M0.14 73 C19.33 51.05, 39.12 27.71, 63.78 -0.21 M0.28 85.04 C17.4 67.82, 31.53 48.74, 74.41 -0.24 M0.28 85.04 C17.1 65.7, 32.64 47.32, 74.41 -0.24 M-0.25 97.84 C22.99 70.53, 45.35 45.83, 85.04 -0.28 M-0.25 97.84 C25.33 67.79, 52.16 38.26, 85.04 -0.28 M-0.11 109.88 C22.83 85.01, 46.4 56.37, 95.67 -0.31 M-0.11 109.88 C23.34 83.77, 48.32 57.76, 95.67 -0.31 M0.02 121.92 C35.92 84, 68.56 41.06, 106.3 -0.34 M0.02 121.92 C38.73 78.37, 75.77 34.58, 106.3 -0.34 M5.4 127.92 C44.12 83.57, 81.87 38.24, 116.27 0.38 M5.4 127.92 C36.84 89.91, 69.12 52.74, 116.27 0.38 M16.03 127.89 C42.74 97.32, 67.65 68.77, 126.91 0.34 M16.03 127.89 C53.79 84.06, 90.81 39.34, 126.91 0.34 M26.66 127.85 C66.14 79.79, 106.64 31.43, 137.54 0.31 M26.66 127.85 C66.84 84.47, 106.01 38.81, 137.54 0.31 M37.29 127.82 C76.17 80.72, 119.31 34, 148.17 0.27 M37.29 127.82 C65.09 95.71, 93.69 64.73, 148.17 0.27 M47.92 127.78 C84.66 84.01, 123.01 43.88, 158.8 0.24 M47.92 127.78 C80.44 90.46, 113.08 53.11, 158.8 0.24 M58.55 127.75 C94.81 84.7, 131.81 44.79, 169.43 0.2 M58.55 127.75 C88.88 92.17, 118.73 55.2, 169.43 0.2 M69.18 127.71 C113 77.51, 156.29 27.79, 180.06 0.17 M69.18 127.71 C108.18 83.61, 146.43 39.43, 180.06 0.17 M79.81 127.68 C114.51 86.42, 152.09 41.47, 190.69 0.13 M79.81 127.68 C120.02 80.76, 159.38 36.1, 190.69 0.13 M90.44 127.65 C121.09 93.29, 149.86 56.1, 201.32 0.1 M90.44 127.65 C132.64 75.83, 176.74 26.68, 201.32 0.1 M100.42 128.37 C142.66 78.96, 188.06 25.07, 211.95 0.06 M100.42 128.37 C127.76 97.09, 154.87 66.74, 211.95 0.06 M111.05 128.33 C137.34 98.51, 165.75 67.49, 217.33 6.07 M111.05 128.33 C145.5 90.78, 178.27 51.82, 217.33 6.07 M121.68 128.3 C152.62 92.98, 185.43 55.4, 216.8 18.86 M121.68 128.3 C158.86 87.04, 194.44 47.21, 216.8 18.86 M132.31 128.26 C167.96 91.61, 197.88 53.87, 216.94 30.9 M132.31 128.26 C151.14 105.97, 171.03 84.18, 216.94 30.9 M142.94 128.23 C170.49 93.06, 202.55 61.51, 217.07 42.95 M142.94 128.23 C160.21 108.59, 176.01 89.14, 217.07 42.95 M153.57 128.19 C169.36 109.32, 186.52 90.22, 217.2 54.99 M153.57 128.19 C168.23 112.45, 181.38 96.48, 217.2 54.99 M164.2 128.16 C174.81 117.43, 186.1 102.69, 217.34 67.03 M164.2 128.16 C175.15 115.7, 185.11 103.76, 217.34 67.03 M174.83 128.12 C183.95 114.83, 196.11 106.01, 216.81 79.82 M174.83 128.12 C187.04 114.5, 197.76 101.34, 216.81 79.82 M185.46 128.09 C192.05 121.1, 197.67 111.37, 216.95 91.86 M185.46 128.09 C196.41 117.19, 205.57 105.3, 216.95 91.86 M196.09 128.05 C198.88 123.51, 206.79 118.26, 217.08 103.9 M196.09 128.05 C201.69 119.56, 209.04 113.51, 217.08 103.9 M206.72 128.02 C211.03 123.22, 212.16 120.43, 217.21 115.95 M206.72 128.02 C209.41 125.08, 212.11 121.56, 217.21 115.95" stroke="#ffc9c9" stroke-width="1" fill="none"></path><path d="M0 0 C58.18 -0.28, 115.44 -1.77, 216.67 0 M0 0 C66.55 1.42, 132.03 1.81, 216.67 0 M216.67 0 C217.6 41.11, 215.01 84.67, 216.67 128 M216.67 0 C216.19 44.27, 216.21 91.03, 216.67 128 M216.67 128 C156.34 127.87, 94.39 128.54, 0 128 M216.67 128 C147.91 130.57, 77.95 130.4, 0 128 M0 128 C-0.62 90.38, -1.25 49.09, 0 0 M0 128 C1.27 76.76, -0.18 27.22, 0 0" stroke="#1e1e1e" stroke-width="2" fill="none"></path></g><g transform="translate(38 1033.0331729108202) rotate(0 83.08796691894531 22.5)"><text x="0" y="0" font-family="Virgil, Segoe UI Emoji" font-size="36px" fill="#1e1e1e" text-anchor="start" style="white-space: pre;" direction="ltr" dominant-baseline="text-before-edge">Mobile UI</text></g><g transform="translate(253.8453369140625 1004.5332034283983) rotate(0 89.95992279052734 37.5)"><text x="0" y="0" font-family="Virgil, Segoe UI Emoji" font-size="20px" fill="#1e1e1e" text-anchor="start" style="white-space: pre;" direction="ltr" dominant-baseline="text-before-edge">* Interface mobile</text><text x="0" y="25" font-family="Virgil, Segoe UI Emoji" font-size="20px" fill="#1e1e1e" text-anchor="start" style="white-space: pre;" direction="ltr" dominant-baseline="text-before-edge"></text><text x="0" y="50" font-family="Virgil, Segoe UI Emoji" font-size="20px" fill="#1e1e1e" text-anchor="start" style="white-space: pre;" direction="ltr" dominant-baseline="text-before-edge">* React Native</text></g><g stroke-linecap="round"><g transform="translate(151.71592712402344 966.3664401227343) rotate(0 45.80885276096433 -46.70542901387262)"><path d="M0 0 C20.65 -22.63, 44.36 -47.47, 91.62 -93.41 M0 0 C30.88 -31.47, 61.89 -64.62, 91.62 -93.41" stroke="#1e1e1e" stroke-width="2" fill="none"></path></g><g transform="translate(151.71592712402344 966.3664401227343) rotate(0 45.80885276096433 -46.70542901387262)"><path d="M80.99 -70.78 C82.02 -76, 86.05 -83.65, 91.62 -93.41 M80.99 -70.78 C84.44 -78.07, 87.82 -87.08, 91.62 -93.41" stroke="#1e1e1e" stroke-width="2" fill="none"></path></g><g transform="translate(151.71592712402344 966.3664401227343) rotate(0 45.80885276096433 -46.70542901387262)"><path d="M68.93 -82.9 C72.9 -85.21, 79.86 -89.92, 91.62 -93.41 M68.93 -82.9 C76.52 -86.06, 84.02 -90.94, 91.62 -93.41" stroke="#1e1e1e" stroke-width="2" fill="none"></path></g></g><mask></mask><g stroke-linecap="round"><g transform="translate(280.0469463311183 893.0330966168749) rotate(0 -39.24619274196493 43.333343505859375)"><path d="M0 0 C-26.35 26.53, -51.04 57.18, -78.49 86.67 M0 0 C-24.36 25.87, -47.39 53.64, -78.49 86.67" stroke="#1e1e1e" stroke-width="2" fill="none"></path></g><g transform="translate(280.0469463311183 893.0330966168749) rotate(0 -39.24619274196493 43.333343505859375)"><path d="M-68.9 63.58 C-72.3 69.27, -74.51 79.19, -78.49 86.67 M-68.9 63.58 C-72.21 69.79, -74.27 78.21, -78.49 86.67" stroke="#1e1e1e" stroke-width="2" fill="none"></path></g><g transform="translate(280.0469463311183 893.0330966168749) rotate(0 -39.24619274196493 43.333343505859375)"><path d="M-56.31 75.14 C-63.72 77.09, -70.04 83.23, -78.49 86.67 M-56.31 75.14 C-63.43 77.89, -69.33 82.79, -78.49 86.67" stroke="#1e1e1e" stroke-width="2" fill="none"></path></g></g><mask></mask><g transform="translate(508.8127161661796 469.19966155828115) rotate(0 89.50994110107422 37.5)"><text x="0" y="0" font-family="Virgil, Segoe UI Emoji" font-size="20px" fill="#1e1e1e" text-anchor="start" style="white-space: pre;" direction="ltr" dominant-baseline="text-before-edge">* Banco de dados</text><text x="0" y="25" font-family="Virgil, Segoe UI Emoji" font-size="20px" fill="#1e1e1e" text-anchor="start" style="white-space: pre;" direction="ltr" dominant-baseline="text-before-edge"></text><text x="0" y="50" font-family="Virgil, Segoe UI Emoji" font-size="20px" fill="#1e1e1e" text-anchor="start" style="white-space: pre;" direction="ltr" dominant-baseline="text-before-edge">* MySQL</text></g><g transform="translate(728.3971501325368 11.22886112940796) rotate(0 106.95996856689453 140)"><text x="0" y="0" font-family="Virgil, Segoe UI Emoji" font-size="28px" fill="#1e1e1e" text-anchor="start" style="white-space: pre;" direction="ltr" dominant-baseline="text-before-edge">TECNOLOGIAS</text><text x="0" y="35" font-family="Virgil, Segoe UI Emoji" font-size="28px" fill="#1e1e1e" text-anchor="start" style="white-space: pre;" direction="ltr" dominant-baseline="text-before-edge"></text><text x="0" y="70" font-family="Virgil, Segoe UI Emoji" font-size="28px" fill="#1e1e1e" text-anchor="start" style="white-space: pre;" direction="ltr" dominant-baseline="text-before-edge">* Spring</text><text x="0" y="105" font-family="Virgil, Segoe UI Emoji" font-size="28px" fill="#1e1e1e" text-anchor="start" style="white-space: pre;" direction="ltr" dominant-baseline="text-before-edge">* AlpineJS</text><text x="0" y="140" font-family="Virgil, Segoe UI Emoji" font-size="28px" fill="#1e1e1e" text-anchor="start" style="white-space: pre;" direction="ltr" dominant-baseline="text-before-edge">* Thymeleaf</text><text x="0" y="175" font-family="Virgil, Segoe UI Emoji" font-size="28px" fill="#1e1e1e" text-anchor="start" style="white-space: pre;" direction="ltr" dominant-baseline="text-before-edge">* Bootstrap</text><text x="0" y="210" font-family="Virgil, Segoe UI Emoji" font-size="28px" fill="#1e1e1e" text-anchor="start" style="white-space: pre;" direction="ltr" dominant-baseline="text-before-edge">* MySQL</text><text x="0" y="245" font-family="Virgil, Segoe UI Emoji" font-size="28px" fill="#1e1e1e" text-anchor="start" style="white-space: pre;" direction="ltr" dominant-baseline="text-before-edge">* React Native</text></g></svg>