<svg version="1.1" xmlns="http://www.w3.org/2000/svg" viewBox="0 0 911.6667175292969 1023.3333206176758" width="911.6667175292969" height="1023.3333206176758">
  <!-- svg-source:excalidraw -->
  
  <defs>
    <style class="style-fonts">
      @font-face {
        font-family: "Virgil";
        src: url("https://excalidraw.com/Virgil.woff2");
      }
      @font-face {
        font-family: "Cascadia";
        src: url("https://excalidraw.com/Cascadia.woff2");
      }
      @font-face {
        font-family: "Assistant";
        src: url("https://excalidraw.com/Assistant-Regular.woff2");
      }
    </style>
    
  </defs>
  <rect x="0" y="0" width="911.6667175292969" height="1023.3333206176758" fill="#ffffff"></rect><g stroke-linecap="round" transform="translate(10 10) rotate(0 445.83335876464844 501.6666603088379)"><path d="M32 0 C327.63 -0.07, 623.34 1.79, 859.67 0 C879.69 2.39, 893.54 10.52, 891.67 32 C896.39 249.91, 898.23 466.4, 891.67 971.33 C891.1 994.69, 883.32 1006.72, 859.67 1003.33 C588.59 996.97, 316.45 998.22, 32 1003.33 C13.43 1001.63, 0.84 991.96, 0 971.33 C3.53 688.13, 3.36 404.38, 0 32 C3.37 9.23, 12.53 0.51, 32 0" stroke="none" stroke-width="0" fill="#e9ecef"></path><path d="M32 0 C316.09 -1.51, 599.1 -0.18, 859.67 0 M32 0 C358.17 2.28, 684.93 1.67, 859.67 0 M859.67 0 C880.49 0.04, 892.93 8.72, 891.67 32 M859.67 0 C880.55 0.57, 892.52 10.28, 891.67 32 M891.67 32 C890.31 265.72, 890.71 499.63, 891.67 971.33 M891.67 32 C893.94 235.7, 894.51 438.85, 891.67 971.33 M891.67 971.33 C890.59 993.21, 880.84 1002.42, 859.67 1003.33 M891.67 971.33 C889.62 991.53, 882.11 1004.66, 859.67 1003.33 M859.67 1003.33 C587.04 1002.87, 312.44 1003.31, 32 1003.33 M859.67 1003.33 C562 1003.78, 264.89 1004.18, 32 1003.33 M32 1003.33 C11.25 1001.81, 0.55 991.27, 0 971.33 M32 1003.33 C11.91 1004, -1.95 994.15, 0 971.33 M0 971.33 C3.73 715.4, 2.99 458.64, 0 32 M0 971.33 C-1.04 635.58, -1.51 300.86, 0 32 M0 32 C0.75 10.91, 10.4 -1.84, 32 0 M0 32 C-2.14 11.15, 12.73 -0.65, 32 0" stroke="transparent" stroke-width="2" fill="none"></path></g><g stroke-linecap="round" transform="translate(301.6316437427022 294.18238427642655) rotate(0 11.290991541371568 10.287340191611293)"><path d="M12.28 -0.36 C14.56 -0.35, 17.04 1.13, 18.67 2.66 C20.31 4.18, 21.77 6.58, 22.1 8.8 C22.43 11.02, 21.94 14.15, 20.66 15.97 C19.37 17.8, 16.73 19.05, 14.39 19.72 C12.06 20.39, 8.81 20.71, 6.64 20 C4.46 19.28, 2.43 17.51, 1.32 15.44 C0.22 13.37, -0.49 9.8, 0.01 7.58 C0.5 5.37, 2.16 3.44, 4.3 2.16 C6.43 0.87, 11.34 0.25, 12.83 -0.14 C14.33 -0.53, 13.4 -0.38, 13.27 -0.19 M9.39 0.26 C11.53 -0.16, 14.33 0.4, 16.49 1.38 C18.64 2.35, 21.51 3.99, 22.32 6.11 C23.12 8.24, 22.09 12.07, 21.32 14.14 C20.54 16.21, 19.67 17.5, 17.66 18.53 C15.65 19.56, 11.85 20.53, 9.27 20.31 C6.7 20.08, 3.68 18.76, 2.23 17.19 C0.78 15.63, 0.56 13.03, 0.57 10.93 C0.58 8.82, 0.76 6.3, 2.28 4.57 C3.8 2.84, 8.5 1.16, 9.67 0.56 C10.83 -0.04, 9.26 0.94, 9.27 0.95" stroke="none" stroke-width="0" fill="#ffc9c9"></path><path d="M9.58 0.61 C11.79 0.23, 14.79 0.92, 16.89 1.9 C18.98 2.89, 21.34 4.59, 22.14 6.52 C22.93 8.46, 22.62 11.38, 21.66 13.52 C20.7 15.66, 18.41 18.15, 16.38 19.37 C14.34 20.58, 11.71 21.31, 9.47 20.81 C7.23 20.3, 4.59 18.18, 2.95 16.34 C1.31 14.49, -0.27 11.86, -0.35 9.74 C-0.42 7.62, 0.68 5.22, 2.5 3.61 C4.32 2.01, 9.14 0.71, 10.56 0.11 C11.98 -0.5, 10.97 -0.12, 11.02 0 M10.1 0.8 C12.4 0.39, 15.97 0.75, 17.86 1.69 C19.75 2.63, 20.85 4.45, 21.44 6.45 C22.04 8.44, 22.24 11.49, 21.42 13.68 C20.59 15.88, 18.65 18.46, 16.5 19.62 C14.35 20.78, 10.73 21.08, 8.52 20.64 C6.31 20.2, 4.63 18.84, 3.23 17 C1.83 15.16, 0.09 11.89, 0.13 9.57 C0.18 7.26, 2.06 4.74, 3.5 3.11 C4.94 1.48, 7.76 0.19, 8.79 -0.21 C9.82 -0.62, 9.65 0.4, 9.68 0.69" stroke="#1e1e1e" stroke-width="2" fill="none"></path></g><g stroke-linecap="round"><g transform="translate(311.66811129714097 315.76071600940895) rotate(0 -0.00002297158107467112 20.32378477446855)"><path d="M0.54 -0.2 C0.65 6.47, 0.63 33.31, 0.51 40.11 M0.15 -0.78 C0.25 5.93, 0.47 33.55, 0.34 40.53" stroke="#1e1e1e" stroke-width="2" fill="none"></path></g></g><mask></mask><g stroke-linecap="round"><g transform="translate(312.1699484578121 356.4083085299276) rotate(0 7.52732769424756 8.02914188333716)"><path d="M1.17 0.46 C3.42 3.27, 11.75 13.12, 14.01 15.85 M0.33 -0.34 C2.9 2.74, 13.93 14.73, 16.17 17.29" stroke="#1e1e1e" stroke-width="2" fill="none"></path></g></g><mask></mask><g stroke-linecap="round"><g transform="translate(311.1663200796329 356.4083085299276) rotate(0 -8.280060463672271 7.778234788792361)"><path d="M0.36 0.66 C-2.53 3.19, -14.07 13.3, -16.85 15.66 M-0.91 -0.04 C-4.03 2.67, -15.28 14.61, -17.95 17.26" stroke="#1e1e1e" stroke-width="2" fill="none"></path></g></g><mask></mask><g stroke-linecap="round"><g transform="translate(295.1079903697964 331.3172085585752) rotate(0 15.807388157919831 -0.5018256748799104)"><path d="M-0.36 0.05 C4.85 -0.1, 26.01 -0.34, 31.26 -0.56 M0.46 -0.41 C5.83 -0.73, 27.01 -1.24, 32.3 -1.3" stroke="#1e1e1e" stroke-width="2" fill="none"></path></g></g><mask></mask><g transform="translate(273.615581584595 386.68238427642655) rotate(0 40.91998291015625 10)"><text x="0" y="0" font-family="Virgil, Segoe UI Emoji" font-size="16px" fill="#1e1e1e" text-anchor="start" style="white-space: pre;" direction="ltr" dominant-baseline="text-before-edge">Funcionário</text></g><g transform="translate(612.1947066594075 298.1936848248488) rotate(0 85.76992797851562 12.5)"><text x="0" y="0" font-family="Virgil, Segoe UI Emoji" font-size="20px" fill="#1e1e1e" text-anchor="start" style="white-space: pre;" direction="ltr" dominant-baseline="text-before-edge">Gerencia despesa</text></g><g stroke-linecap="round"><g transform="translate(365.82204079272105 311.31377655060123) rotate(0 99.77478177570993 -0.6248346812355976)"><path d="M0.26 1.06 C33.29 0.9, 165.73 -0.74, 199.11 -1.04 M-1.06 0.57 C31.7 0.03, 164.37 -2.48, 197.94 -3.06" stroke="#e03131" stroke-width="2" fill="none"></path></g></g><mask></mask><g stroke-linecap="round" transform="translate(594.7926247282594 398.7083762702696) rotate(0 105 40)"><path d="M77.97 1.97 C90.68 0.13, 107.26 -0.57, 121.43 0.1 C135.59 0.77, 150.94 2.93, 162.94 5.99 C174.94 9.04, 185.71 13.72, 193.43 18.44 C201.15 23.16, 207.06 29.13, 209.26 34.3 C211.45 39.46, 210.26 44.18, 206.59 49.43 C202.91 54.68, 196.33 61.27, 187.19 65.79 C178.06 70.32, 164.52 74.34, 151.78 76.59 C139.04 78.84, 124.95 79.29, 110.76 79.3 C96.57 79.31, 80.07 78.64, 66.62 76.65 C53.16 74.66, 39.81 71.02, 30.03 67.35 C20.24 63.68, 12.96 59.42, 7.93 54.64 C2.89 49.85, -0.59 43.98, -0.18 38.65 C0.23 33.31, 3.91 27.55, 10.41 22.6 C16.9 17.66, 26.47 12.57, 38.79 8.98 C51.11 5.38, 75.6 2.43, 84.31 1.04 C93.03 -0.35, 90.71 -0.16, 91.07 0.62 M144.37 2.41 C157.34 3.43, 169.64 7.19, 179.67 11.4 C189.69 15.61, 199.51 22.29, 204.51 27.66 C209.52 33.04, 211.06 38.37, 209.7 43.64 C208.34 48.91, 203.3 54.45, 196.36 59.27 C189.43 64.1, 178.91 69.26, 168.09 72.57 C157.28 75.88, 144.96 77.79, 131.48 79.11 C118.01 80.44, 101.66 81.76, 87.25 80.53 C72.83 79.31, 56.73 75, 44.98 71.78 C33.24 68.55, 23.96 65.58, 16.8 61.18 C9.64 56.77, 3.95 50.73, 2.03 45.35 C0.12 39.96, 1.48 34.11, 5.31 28.86 C9.14 23.61, 15.84 17.9, 25.01 13.86 C34.18 9.82, 47.69 6.91, 60.32 4.64 C72.95 2.36, 86.95 0.63, 100.77 0.22 C114.59 -0.19, 135.83 1.39, 143.23 2.17 C150.63 2.96, 145.8 4.26, 145.15 4.91" stroke="#1e1e1e" stroke-width="2" fill="none"></path></g><g transform="translate(629.3194556134049 427.20834575269146) rotate(0 77.57994079589844 12.5)"><text x="0" y="0" font-family="Virgil, Segoe UI Emoji" font-size="20px" fill="#1e1e1e" text-anchor="start" style="white-space: pre;" direction="ltr" dominant-baseline="text-before-edge">Gerencia viagem</text></g><g transform="translate(283.94720761097324 156.42583054463012) rotate(0 211.6239471435547 17.5)"><text x="0" y="0" font-family="Virgil, Segoe UI Emoji" font-size="28px" fill="#1e1e1e" text-anchor="start" style="white-space: pre;" direction="ltr" dominant-baseline="text-before-edge">DIAGRAMA DE CASO DE USO</text></g><g stroke-linecap="round" transform="translate(590.2789292410598 271.61300095014303) rotate(0 105 40)"><path d="M90.24 -0.12 C103.53 -1.47, 120.61 -0.59, 134.52 1.05 C148.43 2.69, 162.99 6.08, 173.7 9.72 C184.41 13.36, 192.74 17.89, 198.79 22.87 C204.83 27.85, 209.43 34.27, 209.98 39.6 C210.53 44.94, 207.51 49.91, 202.1 54.88 C196.69 59.85, 187.78 65.64, 177.53 69.42 C167.28 73.19, 153.94 75.6, 140.59 77.5 C127.24 79.41, 111.6 81.07, 97.43 80.84 C83.27 80.61, 68.28 78.85, 55.58 76.14 C42.87 73.42, 30.04 69.09, 21.21 64.56 C12.37 60.03, 5.84 54.24, 2.57 48.98 C-0.71 43.72, -0.98 38.19, 1.58 33.02 C4.13 27.85, 9.91 22.53, 17.9 17.97 C25.89 13.42, 36.51 8.8, 49.53 5.69 C62.56 2.58, 87.59 0.19, 96.07 -0.69 C104.55 -1.56, 100.29 -0.5, 100.43 0.44 M153.49 3.65 C165.75 5.33, 177.84 11.14, 186.52 15.68 C195.21 20.23, 201.92 25.8, 205.62 30.92 C209.32 36.04, 210.9 41.33, 208.73 46.41 C206.56 51.49, 200.58 57, 192.59 61.39 C184.6 65.79, 173 69.76, 160.79 72.78 C148.59 75.81, 133.68 78.68, 119.37 79.53 C105.06 80.38, 88.42 79.22, 74.94 77.91 C61.46 76.59, 49.12 74.99, 38.5 71.63 C27.88 68.27, 17.59 62.63, 11.23 57.76 C4.88 52.88, 0.83 47.64, 0.39 42.38 C-0.06 37.11, 3.21 31.42, 8.54 26.18 C13.87 20.93, 22.47 14.79, 32.36 10.89 C42.24 6.98, 54.38 4.39, 67.86 2.73 C81.35 1.07, 98.89 0.65, 113.25 0.93 C127.62 1.22, 147.42 3.64, 154.05 4.44 C160.68 5.24, 153.67 5.17, 153.02 5.73" stroke="#1e1e1e" stroke-width="2" fill="none"></path></g><g stroke-linecap="round"><g transform="translate(357.67379396209344 358.1012808481073) rotate(0 102.46668591153639 36.76253183180688)"><path d="M-0.62 0.77 C33.58 13.24, 170.72 62.7, 205.12 74.71 M1.25 0.13 C35.32 12.3, 170.24 60.93, 204.27 73.21" stroke="#e03131" stroke-width="2" fill="none"></path></g></g><mask></mask><g transform="translate(638.3409445544639 669.9510936494207) rotate(0 81.88993072509766 12.5)"><text x="0" y="0" font-family="Virgil, Segoe UI Emoji" font-size="20px" fill="#1e1e1e" text-anchor="start" style="white-space: pre;" direction="ltr" dominant-baseline="text-before-edge">Monitora viagens</text></g><g stroke-linecap="round" transform="translate(615.3900089661138 642.335294249443) rotate(0 108.62279772662714 40)"><path d="M126.57 1.2 C140.72 1.55, 157.24 3.68, 169.71 6.49 C182.17 9.31, 193.5 13.38, 201.34 18.08 C209.18 22.79, 214.73 29.37, 216.74 34.74 C218.75 40.12, 217.47 45.31, 213.4 50.34 C209.33 55.37, 201.92 60.84, 192.33 64.95 C182.74 69.06, 168.94 72.44, 155.84 75.02 C142.74 77.61, 128.36 80.2, 113.75 80.46 C99.13 80.73, 81.94 78.86, 68.14 76.61 C54.34 74.37, 41.24 70.95, 30.95 67.01 C20.66 63.07, 11.43 57.81, 6.41 52.97 C1.39 48.13, -0.05 43.32, 0.83 37.98 C1.71 32.63, 4.78 25.87, 11.7 20.9 C18.61 15.93, 30.59 11.49, 42.32 8.17 C54.04 4.84, 65.63 1.89, 82.04 0.94 C98.44 0, 129.05 2.08, 140.75 2.51 C152.45 2.94, 152.87 2.96, 152.26 3.51 M88.45 1.67 C101.8 -0.11, 118.92 -1.09, 133.1 0.04 C147.27 1.17, 161.69 5.06, 173.51 8.47 C185.32 11.87, 196.81 16.03, 203.99 20.49 C211.18 24.95, 215.52 29.8, 216.62 35.21 C217.72 40.62, 215.43 47.74, 210.59 52.95 C205.76 58.16, 197.51 62.34, 187.61 66.48 C177.71 70.62, 164.64 75.49, 151.2 77.78 C137.76 80.08, 122 80.68, 106.97 80.25 C91.94 79.83, 74.58 77.63, 61.02 75.24 C47.45 72.85, 34.88 69.71, 25.57 65.9 C16.26 62.08, 9.49 57.64, 5.15 52.35 C0.81 47.06, -2.04 39.53, -0.5 34.15 C1.05 28.78, 6.4 24.71, 14.42 20.11 C22.43 15.5, 35.23 9.54, 47.59 6.55 C59.96 3.56, 81.86 3.12, 88.59 2.15 C95.32 1.17, 87.43 0.46, 87.97 0.71" stroke="#1e1e1e" stroke-width="2" fill="none"></path></g><g stroke-linecap="round" transform="translate(281.57059028186086 732.9655477812303) rotate(0 11.290991541371568 10.287340191611293)"><path d="M9.14 0.73 C11.4 0.05, 14.29 -0.32, 16.41 0.68 C18.53 1.68, 20.86 4.58, 21.84 6.72 C22.82 8.86, 23.12 11.55, 22.29 13.55 C21.47 15.54, 18.88 17.49, 16.87 18.68 C14.86 19.87, 12.56 20.95, 10.25 20.67 C7.94 20.39, 4.67 18.6, 3 17.01 C1.33 15.43, 0.33 13.42, 0.22 11.17 C0.11 8.92, 0.85 5.29, 2.35 3.52 C3.86 1.76, 8.1 1.06, 9.24 0.6 C10.38 0.13, 9.14 0.6, 9.2 0.73 M9.11 0.7 C11.49 0.38, 15.41 0.86, 17.56 2 C19.71 3.15, 21.2 5.51, 22 7.58 C22.8 9.65, 23.14 12.47, 22.36 14.43 C21.58 16.38, 19.66 18.26, 17.31 19.32 C14.96 20.39, 10.77 21.31, 8.25 20.8 C5.73 20.3, 3.46 18.05, 2.2 16.29 C0.94 14.54, 0.66 12.42, 0.67 10.28 C0.67 8.14, 0.83 5.05, 2.23 3.46 C3.63 1.87, 7.92 1.31, 9.06 0.73 C10.2 0.16, 8.93 -0.08, 9.07 0.01" stroke="none" stroke-width="0" fill="#a5d8ff"></path><path d="M11.05 -0.27 C13.29 -0.47, 15.78 1.07, 17.57 2.48 C19.35 3.89, 21.05 6.14, 21.77 8.18 C22.49 10.22, 22.89 12.76, 21.86 14.7 C20.84 16.64, 17.84 18.87, 15.62 19.82 C13.4 20.76, 10.83 21, 8.55 20.38 C6.26 19.76, 3.27 17.94, 1.91 16.1 C0.56 14.26, 0.22 11.54, 0.44 9.34 C0.65 7.13, 1.43 4.41, 3.2 2.86 C4.96 1.31, 9.61 0.43, 11.04 0.02 C12.47 -0.39, 11.79 0.27, 11.77 0.39 M9.84 0.79 C12.21 0.27, 15.57 -0.1, 17.74 1.07 C19.91 2.25, 22.31 5.66, 22.88 7.82 C23.44 9.99, 22.31 12.19, 21.12 14.05 C19.94 15.92, 17.97 18.08, 15.77 19.02 C13.57 19.96, 10.16 20.05, 7.92 19.7 C5.68 19.34, 3.52 18.53, 2.33 16.87 C1.13 15.22, 0.62 12.05, 0.75 9.75 C0.87 7.44, 1.38 4.66, 3.09 3.03 C4.79 1.39, 9.81 0.48, 10.96 -0.08 C12.12 -0.65, 10.19 -0.64, 10 -0.38" stroke="#1e1e1e" stroke-width="2" fill="none"></path></g><g stroke-linecap="round"><g transform="translate(291.60705783629965 754.5438795142131) rotate(0 -0.00002297158107467112 20.32378477446855)"><path d="M-0.14 -0.17 C-0.21 6.71, 0.16 34.45, 0.13 41.18 M0.79 -0.73 C0.62 6.02, 0.04 33.61, -0.23 40.49" stroke="#1e1e1e" stroke-width="2" fill="none"></path></g></g><mask></mask><g stroke-linecap="round"><g transform="translate(292.1088949969708 795.1914720347309) rotate(0 7.52732769424756 8.02914188333716)"><path d="M0.29 1.16 C2.74 3.74, 11.71 12.79, 14.36 15.08 M-1.01 0.73 C1.85 3.45, 13.86 13.63, 16.71 16.1" stroke="#1e1e1e" stroke-width="2" fill="none"></path></g></g><mask></mask><g stroke-linecap="round"><g transform="translate(291.1052666187916 795.1914720347309) rotate(0 -8.280060463672271 7.778234788792361)"><path d="M-0.69 -0.98 C-3.31 1.22, -12.89 11.44, -15.4 14.38 M1.14 1.12 C-1.56 3.93, -12.86 13.01, -15.74 15.3" stroke="#1e1e1e" stroke-width="2" fill="none"></path></g></g><mask></mask><g stroke-linecap="round"><g transform="translate(275.0469369089551 770.1003720633785) rotate(0 15.807388157919831 -0.5018256748799104)"><path d="M0.53 -0.54 C5.91 -0.55, 26.82 -0.4, 31.98 -0.51 M0.14 0.37 C5.51 0.26, 26.58 -1.04, 31.73 -1.23" stroke="#1e1e1e" stroke-width="2" fill="none"></path></g></g><mask></mask><g transform="translate(257.77633850907387 827.0768038154288) rotate(0 39.319969177246094 10)"><text x="0" y="0" font-family="Virgil, Segoe UI Emoji" font-size="16px" fill="#1e1e1e" text-anchor="start" style="white-space: pre;" direction="ltr" dominant-baseline="text-before-edge">Supervisor</text></g><g stroke-linecap="round"><g transform="translate(358.71873597228023 793.969467257069) rotate(0 117.4428142429033 -52.547057567774345)"><path d="M0.31 0.07 C39.44 -17.27, 194.71 -86.66, 233.84 -104.23 M-0.98 -0.94 C38.59 -18.59, 196.76 -88.7, 236 -105.91" stroke="#1971c2" stroke-width="2" fill="none"></path></g></g><mask></mask><g stroke-linecap="round"><g transform="translate(373.39379454061145 832.1891789199458) rotate(0 106.59912800166876 -0.7798452429487952)"><path d="M0.53 0.77 C36.37 0.57, 178.89 -1.41, 214.37 -1.74 M-0.66 0.14 C35.19 0.17, 178.47 0.28, 214.04 -0.3" stroke="#1971c2" stroke-width="2" fill="none"></path></g></g><mask></mask><g stroke-linecap="round" transform="translate(99.53101655507453 518.6860110626303) rotate(0 11.290991541371568 10.287340191611293)"><path d="M10.17 0.1 C12.3 -0.26, 15.28 0.46, 17.2 1.66 C19.12 2.86, 21.02 5.18, 21.71 7.31 C22.4 9.43, 22.28 12.33, 21.33 14.39 C20.37 16.45, 18.13 18.7, 15.98 19.65 C13.83 20.59, 10.8 20.62, 8.45 20.05 C6.09 19.48, 3.32 17.92, 1.86 16.22 C0.4 14.53, -0.5 12.04, -0.29 9.89 C-0.07 7.74, 1.33 4.95, 3.15 3.33 C4.97 1.71, 9.23 0.76, 10.64 0.17 C12.04 -0.41, 11.62 -0.37, 11.58 -0.17 M13.87 0.48 C16.37 0.68, 19.4 2.18, 20.8 3.86 C22.19 5.55, 22.29 8.29, 22.24 10.6 C22.18 12.92, 22.04 16.15, 20.46 17.75 C18.88 19.35, 15.36 19.96, 12.77 20.21 C10.17 20.46, 6.86 20.33, 4.88 19.24 C2.91 18.15, 1.61 15.76, 0.9 13.67 C0.19 11.58, -0.3 8.79, 0.62 6.7 C1.55 4.61, 4.32 2.17, 6.45 1.14 C8.58 0.1, 12.3 0.54, 13.42 0.47 C14.53 0.4, 13.06 0.67, 13.12 0.72" stroke="#1e1e1e" stroke-width="2" fill="none"></path></g><g stroke-linecap="round"><g transform="translate(109.56748410951332 540.2643427956136) rotate(0 -0.00002297158107467112 20.32378477446855)"><path d="M-0.21 0.41 C-0.28 7.21, -0.01 33.98, 0.04 40.6 M0.68 0.15 C0.5 7.06, -0.22 34.56, -0.37 41.27" stroke="#1e1e1e" stroke-width="2" fill="none"></path></g></g><mask></mask><g stroke-linecap="round"><g transform="translate(110.06932127018354 580.9119353161313) rotate(0 7.52732769424756 8.02914188333716)"><path d="M0.08 -0.11 C2.69 2.22, 12.75 12.37, 15.18 14.88 M-1.33 -1.22 C1.17 1.14, 11.79 12.98, 14.3 15.79" stroke="#1e1e1e" stroke-width="2" fill="none"></path></g></g><mask></mask><g stroke-linecap="round"><g transform="translate(109.06569289200434 580.9119353161313) rotate(0 -8.280060463672271 7.778234788792361)"><path d="M0.13 -1.18 C-2.71 1.24, -14.06 11.75, -16.93 14.44 M-1.27 0.81 C-4.3 3.36, -15.26 12.86, -18.08 15.4" stroke="#1e1e1e" stroke-width="2" fill="none"></path></g></g><mask></mask><g stroke-linecap="round"><g transform="translate(93.00736318216786 555.820835344779) rotate(0 15.807388157919831 -0.5018256748799104)"><path d="M-0.17 -0.51 C5.04 -0.63, 26.09 -1.15, 31.35 -1.26 M0.74 0.42 C5.86 0.41, 25.75 -0.51, 30.79 -0.7" stroke="#1e1e1e" stroke-width="2" fill="none"></path></g></g><mask></mask><g transform="translate(82.45988445315561 608.966694827955) rotate(0 28.71198272705078 10)"><text x="0" y="0" font-family="Virgil, Segoe UI Emoji" font-size="16px" fill="#1e1e1e" text-anchor="start" style="white-space: pre;" direction="ltr" dominant-baseline="text-before-edge">Usuário</text></g><g stroke-linecap="round"><g transform="translate(129.77755468684518 490.4913565651218) rotate(0 69.79357594316207 -67.38635110932296)"><path d="M0.48 0.57 C23.66 -21.9, 115.04 -111.28, 138.4 -133.67 M-0.73 -0.17 C22.87 -22.45, 116.96 -112.65, 140.49 -135.22" stroke="#1e1e1e" stroke-width="2" fill="none"></path></g><g transform="translate(129.77755468684518 490.4913565651218) rotate(0 69.79357594316207 -67.38635110932296)"><path d="M129.45 -112.79 C132.84 -120.21, 136.38 -121.85, 140.49 -135.22 M129.45 -112.79 C133.6 -121.63, 138.87 -129.94, 140.49 -135.22" stroke="#1e1e1e" stroke-width="2" fill="none"></path></g><g transform="translate(129.77755468684518 490.4913565651218) rotate(0 69.79357594316207 -67.38635110932296)"><path d="M117.61 -125.13 C123.98 -129.63, 130.37 -128.29, 140.49 -135.22 M117.61 -125.13 C126.2 -129.14, 136 -132.72, 140.49 -135.22" stroke="#1e1e1e" stroke-width="2" fill="none"></path></g></g><mask></mask><g stroke-linecap="round"><g transform="translate(125.49224373677407 666.1075452853092) rotate(0 60.10286144404654 53.4797410798833)"><path d="M0.22 0.16 C20.37 17.76, 100.21 88.88, 120.35 106.74 M-1.12 -0.8 C18.93 17.5, 99.16 90.5, 119.48 108.17" stroke="#1e1e1e" stroke-width="2" fill="none"></path></g><g transform="translate(125.49224373677407 666.1075452853092) rotate(0 60.10286144404654 53.4797410798833)"><path d="M96.26 98.9 C102.58 101.48, 107.91 105.11, 119.48 108.17 M96.26 98.9 C103.17 102.66, 111.24 105.36, 119.48 108.17" stroke="#1e1e1e" stroke-width="2" fill="none"></path></g><g transform="translate(125.49224373677407 666.1075452853092) rotate(0 60.10286144404654 53.4797410798833)"><path d="M107.65 86.15 C111.17 92.02, 113.57 98.92, 119.48 108.17 M107.65 86.15 C110.75 94.07, 115.03 101.02, 119.48 108.17" stroke="#1e1e1e" stroke-width="2" fill="none"></path></g></g><mask></mask><g stroke-linecap="round" transform="translate(618.9961601424602 781.4961501820067) rotate(0 105 40)"><path d="M70.94 1.55 C83.3 -0.74, 100.86 -0.91, 114.98 -0.17 C129.1 0.56, 143.44 3.44, 155.65 5.97 C167.85 8.5, 179.72 10.81, 188.21 15 C196.7 19.2, 203.39 25.72, 206.6 31.13 C209.81 36.55, 210.12 42.17, 207.47 47.5 C204.82 52.84, 198.86 58.58, 190.71 63.14 C182.57 67.71, 170.84 72.02, 158.58 74.9 C146.32 77.78, 131.18 79.92, 117.16 80.41 C103.15 80.91, 88.13 79.49, 74.48 77.87 C60.83 76.24, 45.9 74.17, 35.29 70.67 C24.67 67.16, 16.74 61.74, 10.78 56.84 C4.83 51.94, 0.05 46.62, -0.47 41.27 C-0.99 35.93, 2.15 29.98, 7.67 24.79 C13.2 19.59, 20.94 13.9, 32.68 10.1 C44.42 6.3, 69.04 3.52, 78.13 1.98 C87.21 0.45, 86.57 0.35, 87.19 0.9 M61.36 4.25 C72.57 1.65, 87.5 1.48, 101.71 1.09 C115.92 0.7, 133.15 0.18, 146.62 1.91 C160.09 3.64, 172.85 7.26, 182.55 11.46 C192.25 15.65, 200.18 21.73, 204.83 27.06 C209.48 32.39, 211.6 38.09, 210.45 43.44 C209.3 48.8, 204.97 54.3, 197.92 59.19 C190.87 64.08, 179.6 69.3, 168.17 72.81 C156.74 76.32, 143.26 79.07, 129.35 80.23 C115.44 81.39, 98.66 81.08, 84.7 79.75 C70.73 78.42, 57.04 75.58, 45.55 72.27 C34.06 68.95, 23.07 64.3, 15.76 59.86 C8.45 55.43, 3.3 50.8, 1.67 45.65 C0.03 40.5, 1.82 34.24, 5.92 28.94 C10.03 23.65, 17.37 17.96, 26.28 13.86 C35.18 9.76, 53.41 5.76, 59.35 4.35 C65.29 2.93, 61.02 4.63, 61.91 5.36" stroke="#1e1e1e" stroke-width="2" fill="none"></path></g><g transform="translate(628.337783236806 809.9961196644285) rotate(0 96.94991302490234 12.5)"><text x="0" y="0" font-family="Virgil, Segoe UI Emoji" font-size="20px" fill="#1e1e1e" text-anchor="start" style="white-space: pre;" direction="ltr" dominant-baseline="text-before-edge">Gerencia funcionário</text></g></svg>